<?xml version="1.0" encoding="utf-8"?>
<svg version="1.1" xmlns:xlink="http://www.w3.org/1999/xlink" width="752px" height="400px" xmlns="http://www.w3.org/2000/svg">
  <g transform="matrix(1 0 0 1 -550 -139 )">
    <path d="M 550 139  L 1302 139  L 1302 539  L 550 539  L 550 139  " fill-rule="nonzero" fill="#cccccc" stroke="none" />
    <path d="M 578 167  L 1274 167  L 1274 511  L 578 511  L 578 167  " fill-rule="nonzero" fill="#ffffff" stroke="none" />
    <path d="M 971.04 259  C 954.24 259  941.04 245.8  941.04 229  C 941.04 212.2  954.24 199  971.04 199  C 987.84 199  1001.04 212.2  1001.04 229  C 1001.04 245.8  987.84 259  971.04 259  " fill-rule="nonzero" fill="#cccccc" stroke="none" />
    <path d="M 588 501  L 588 322.8  L 757 241.8  L 993.6 397.595744680851  L 1128.8 290.4  L 1264 397.595744680851  L 1264 501  L 588 501  " fill-rule="nonzero" fill="#169bd5" stroke="none" />
  </g>
</svg>