<?xml version="1.0" encoding="utf-8"?>
<svg version="1.1" xmlns:xlink="http://www.w3.org/1999/xlink" width="170px" height="170px" xmlns="http://www.w3.org/2000/svg">
  <g transform="matrix(1 0 0 1 -83 -1892 )">
    <path d="M 168 1892  C 215.6 1892  253 1929.4  253 1977  C 253 2024.6  215.6 2062  168 2062  C 120.4 2062  83 2024.6  83 1977  C 83 1929.4  120.4 1892  168 1892  Z " fill-rule="nonzero" fill="#ffffff" stroke="none" />
    <path d="M 168 1892.5  C 215.32 1892.5  252.5 1929.68  252.5 1977  C 252.5 2024.32  215.32 2061.5  168 2061.5  C 120.68 2061.5  83.5 2024.32  83.5 1977  C 83.5 1929.68  120.68 1892.5  168 1892.5  Z " stroke-width="1" stroke="#797979" fill="none" />
  </g>
</svg>