<?xml version="1.0" encoding="utf-8"?>
<svg version="1.1" xmlns:xlink="http://www.w3.org/1999/xlink" width="663px" height="468px" xmlns="http://www.w3.org/2000/svg">
  <g transform="matrix(1 0 0 1 -852 -1902 )">
    <path d="M 852 1902  L 1515 1902  L 1515 2370  L 852 2370  L 852 1902  " fill-rule="nonzero" fill="#cccccc" stroke="none" />
    <path d="M 885 1935  L 1482 1935  L 1482 2337  L 885 2337  L 885 1935  " fill-rule="nonzero" fill="#ffffff" stroke="none" />
    <path d="M 1231.86 2042.4  C 1212.204 2042.4  1196.76 2026.956  1196.76 2007.3  C 1196.76 1987.644  1212.204 1972.2  1231.86 1972.2  C 1251.516 1972.2  1266.96 1987.644  1266.96 2007.3  C 1266.96 2026.956  1251.516 2042.4  1231.86 2042.4  " fill-rule="nonzero" fill="#cccccc" stroke="none" />
    <path d="M 897 2326  L 897 2117.55  L 1040.5 2022.8  L 1241.4 2165.48235294118  L 1356.2 2079.65  L 1471 2165.48235294118  L 1471 2326  L 897 2326  " fill-rule="nonzero" fill="#169bd5" stroke="none" />
  </g>
</svg>