<?xml version="1.0" encoding="utf-8"?>
<svg version="1.1" xmlns:xlink="http://www.w3.org/1999/xlink" width="31px" height="26px" xmlns="http://www.w3.org/2000/svg">
  <g transform="matrix(1 0 0 1 -273 -360 )">
    <path d="M 30.44 3.58922558922559  C 30.8133333333333 3.99775533108866  31 4.49382716049383  31 5.07744107744108  C 31 5.66105499438832  30.8133333333333 6.15712682379349  30.44 6.56565656565656  L 15.96 22.4107744107744  L 13.24 25.3872053872054  C 12.8666666666667 25.7957351290685  12.4133333333333 26  11.88 26  C 11.3466666666667 26  10.8933333333333 25.7957351290685  10.52 25.3872053872054  L 7.8 22.4107744107744  L 0.56 14.4882154882155  C 0.186666666666667 14.0796857463524  0 13.5836139169472  0 13  C 0 12.4163860830527  0.186666666666667 11.9203142536476  0.56 11.5117845117845  L 3.28 8.53535353535354  C 3.65333333333333 8.12682379349046  4.10666666666667 7.92255892255892  4.64 7.92255892255892  C 5.17333333333333 7.92255892255892  5.62666666666667 8.12682379349046  6 8.53535353535354  L 11.88 14.9915824915825  L 25 0.612794612794613  C 25.3733333333333 0.204264870931537  25.8266666666667 0  26.36 0  C 26.8933333333333 0  27.3466666666667 0.204264870931537  27.72 0.612794612794613  L 30.44 3.58922558922559  Z " fill-rule="nonzero" fill="#000000" stroke="none" transform="matrix(1 0 0 1 273 360 )" />
  </g>
</svg>