<?xml version="1.0" encoding="utf-8"?>
<svg version="1.1" xmlns:xlink="http://www.w3.org/1999/xlink" width="146px" height="134px" xmlns="http://www.w3.org/2000/svg">
  <g transform="matrix(1 0 0 1 -80 -857 )">
    <path d="M 153 857  C 193.88 857  226 886.48  226 924  C 226 961.52  193.88 991  153 991  C 112.12 991  80 961.52  80 924  C 80 886.48  112.12 857  153 857  Z " fill-rule="nonzero" fill="#ffffff" stroke="none" />
    <path d="M 153 857.5  C 193.6 857.5  225.5 886.76  225.5 924  C 225.5 961.24  193.6 990.5  153 990.5  C 112.4 990.5  80.5 961.24  80.5 924  C 80.5 886.76  112.4 857.5  153 857.5  Z " stroke-width="1" stroke="#797979" fill="none" />
  </g>
</svg>