<?xml version="1.0" encoding="utf-8"?>
<svg version="1.1" xmlns:xlink="http://www.w3.org/1999/xlink" width="133px" height="61px" xmlns="http://www.w3.org/2000/svg">
  <g transform="matrix(1 0 0 1 -7 -7 )">
    <path d="M 7 7  L 140 7  L 140 68  L 7 68  L 7 7  " fill-rule="nonzero" fill="#cccccc" stroke="none" />
    <path d="M 11 11  L 136 11  L 136 64  L 11 64  L 11 11  " fill-rule="nonzero" fill="#ffffff" stroke="none" />
    <path d="M 80.735 25.3  C 78.173 25.3  76.16 23.287  76.16 20.725  C 76.16 18.163  78.173 16.15  80.735 16.15  C 83.297 16.15  85.31 18.163  85.31 20.725  C 85.31 23.287  83.297 25.3  80.735 25.3  " fill-rule="nonzero" fill="#cccccc" stroke="none" />
    <path d="M 13 63  L 13 35.5  L 43.5 23  L 86.2 49.2406015037594  L 110.6 30.5  L 135 49.2406015037594  L 135 63  L 13 63  " fill-rule="nonzero" fill="#169bd5" stroke="none" />
  </g>
</svg>