<?xml version="1.0" encoding="utf-8"?>
<svg version="1.1" xmlns:xlink="http://www.w3.org/1999/xlink" width="300px" height="170px" xmlns="http://www.w3.org/2000/svg">
  <g transform="matrix(1 0 0 1 -194 -2569 )">
    <path d="M 194 2569  L 494 2569  L 494 2739  L 194 2739  L 194 2569  " fill-rule="nonzero" fill="#cccccc" stroke="none" />
    <path d="M 206 2581  L 482 2581  L 482 2727  L 206 2727  L 206 2581  " fill-rule="nonzero" fill="#ffffff" stroke="none" />
    <path d="M 362.75 2620  C 355.61 2620  350 2614.39  350 2607.25  C 350 2600.11  355.61 2594.5  362.75 2594.5  C 369.89 2594.5  375.5 2600.11  375.5 2607.25  C 375.5 2614.39  369.89 2620  362.75 2620  " fill-rule="nonzero" fill="#cccccc" stroke="none" />
    <path d="M 211 2723  L 211 2647.65  L 277.75 2613.4  L 371.2 2676.42  L 424.6 2633.95  L 478 2676.42  L 478 2723  L 211 2723  " fill-rule="nonzero" fill="#169bd5" stroke="none" />
  </g>
</svg>